<svg xmlns="http://www.w3.org/2000/svg"><symbol id="mecha-stilts" viewBox="0 0 256 256"><style>.st0{fill:#fff}</style><path d="M79 158h13.2v13H79zm17.3 0H117v13H96.3zm24.8 0h13.2v13h-13.2zm67.9-40.8l-122.4.1v36.6H189v-36.7zm-10.1 25.1c-.2.8-.8 1.4-1.6 1.6h-50.5c-1.1.3-2.3-.5-2.5-1.6s.5-2.3 1.6-2.5c.3-.1.6-.1.9 0h50.5c1.1.3 1.8 1.4 1.6 2.5zm-51-70.6c-24.2 0-44.6 14.7-45.6 41.4h91.1c-1-26.7-21.3-41.4-45.5-41.4z"/><path d="M127.8 2.6l-109.1 63v126l109.1 63 109.1-63v-126l-109.1-63zM192 175.1c-.3.1-.6.1-.9 0l-126.6.1c-1.1-.3-1.8-1.4-1.6-2.5.2-.8.8-1.4 1.6-1.6h10.3V158H64.5c-1.1.1-2-.8-2.1-1.9v-41c-.1-1.1.8-2 1.9-2.1h13.8c1-29.4 23-45.5 49.7-45.5s48.6 16.1 49.7 45.5h13.7c1.1-.1 2 .8 2.1 1.9v41c.1 1.1-.8 2-1.9 2.1h-10.6v13h10.3c1.1-.3 2.3.5 2.5 1.6s-.5 2.2-1.6 2.5z"/><path d="M138.6 158h20.7v13h-20.7zm24.8 0h13.2v13h-13.2z"/><path d="M177.3 139.8h-50.5c-.3-.1-.6-.1-.9 0-1.1.3-1.8 1.4-1.6 2.5s1.4 1.8 2.5 1.6h50.5c.8-.2 1.4-.8 1.6-1.6.2-1.1-.5-2.2-1.6-2.5z" class="st0"/></symbol><symbol id="space-bubbles" viewBox="0 0 256 256"><path d="M89.8 171H118l-8.5-10.3zm10.8-20.9H86.9l-18.2 21.5 2.9 4.1 35-18.4zm73.6-19c1.7-5.1 2.5-10.4 2.5-15.7 0-24.7-20.1-44.8-44.8-44.8s-44.8 20.1-44.8 44.8c0 5.3.4 10.9 2.5 15.7h84.6zm-98.9 4.1h113.2V146H75.3zm30.7 14.9l17.3 20.9h14.9l17.4-20.9zm37.6 20.9h28.1l-19.6-10.3z"/><path d="M130.8 2.6l-109.1 63v126l109.1 63 109.1-63v-126l-109.1-63zM197 172.9l-4.8 6.8c-.6.8-1.8 1.1-2.7.6l-9.9-5.2H81.7l-9.9 5.2c-.9.4-2 .2-2.7-.6l-4.8-6.8c-.5-.8-.4-1.8.2-2.5l17.2-20.3h-8.4c-1.1.1-2-.8-2.1-1.9v-15.1c-.1-1.1.8-2 1.9-2.1h12.2c-1.5-5.1-2.3-10.4-2.3-15.7 0-27 21.9-49 49-49 27 0 49 21.9 49 49 .1 5.3-.7 10.6-2.3 15.7h12c1.1-.1 2 .8 2.1 1.9V148c.1 1.1-.8 2-1.9 2.1H180l17 20.3c.5.8.5 1.7 0 2.5z"/><path d="M161 150.1l-6.2 7.2 35.2 18.5 2.9-3.9-18.2-21.8z"/></symbol><symbol id="super-domes" viewBox="0 0 256 256"><path d="M126.2 127.9l.1-41.9-29.9 41.9zm4.2 19.6h9.3v23h-9.3zm-6.2-65.6c-26.5 1.7-48.6 20.9-55 45.9h22l33-45.9zm6.2-.2v46.1h57.1c-6.8-26.3-30-45-57.1-46.1zm-59.8 65.8h55.7v23H70.6zm73.3 0H186v23h-42.1z"/><path d="M128.3 2.1l-109.1 63v126l109.1 63 109.1-63v-126l-109.1-63zm90.1 145.5c-.3.1-.6.1-.9 0h-27.3v25c.1 1.1-.8 2-1.9 2.1H68.5c-1.1.1-2-.8-2.1-1.9v-25.2H39.1c-1.1-.3-1.8-1.4-1.6-2.5.2-.8.8-1.4 1.6-1.6h15.5V130c-.1-1.1.8-2 1.9-2.1h8.3c7-29.3 33.1-50.1 63.3-50.3.2-.2.4-.2.8 0 30.6.2 56.1 21.7 62.9 50.3h8.1c1.1-.1 2 .8 2.1 1.9v13.7h15.5c1.1-.3 2.3.5 2.5 1.6.3 1.1-.5 2.2-1.6 2.5z"/><path d="M58.8 132h139v11.4h-139z"/></symbol></svg>